<svg width="44" height="34" viewBox="0 0 44 34" fill="none" xmlns="http://www.w3.org/2000/svg">
<rect width="44" height="34" rx="2" fill="#883AEA"/>
<path d="M11.392 25.288C9.968 25.288 8.744 25.08 7.72 24.664C6.696 24.248 5.912 23.6 5.368 22.72C4.824 21.824 4.552 20.672 4.552 19.264V19.048H9.52V19.24C9.52 20.008 9.664 20.552 9.952 20.872C10.24 21.176 10.664 21.328 11.224 21.328C11.784 21.328 12.208 21.176 12.496 20.872C12.784 20.552 12.928 20.008 12.928 19.24V8.488H18.232V19.264C18.232 20.672 17.96 21.824 17.416 22.72C16.872 23.6 16.088 24.248 15.064 24.664C14.04 25.08 12.816 25.288 11.392 25.288ZM29.3198 25.288C26.5678 25.288 24.5038 24.568 23.1278 23.128C21.7678 21.688 21.0878 19.56 21.0878 16.744C21.0878 14.856 21.4398 13.28 22.1438 12.016C22.8478 10.752 23.8718 9.8 25.2158 9.16C26.5598 8.52 28.1838 8.2 30.0878 8.2C31.2398 8.2 32.3198 8.336 33.3278 8.608C34.3518 8.864 35.2478 9.256 36.0158 9.784C36.7998 10.296 37.4078 10.944 37.8398 11.728C38.2718 12.512 38.4878 13.424 38.4878 14.464H33.4238C33.4238 14.112 33.3358 13.792 33.1598 13.504C32.9998 13.216 32.7758 12.976 32.4878 12.784C32.1998 12.576 31.8638 12.424 31.4798 12.328C31.1118 12.216 30.7198 12.16 30.3038 12.16C29.6798 12.16 29.1278 12.248 28.6478 12.424C28.1678 12.584 27.7678 12.832 27.4478 13.168C27.1438 13.504 26.9118 13.904 26.7518 14.368C26.5918 14.832 26.5118 15.368 26.5118 15.976V17.512C26.5118 18.312 26.6478 19 26.9198 19.576C27.2078 20.136 27.6318 20.568 28.1918 20.872C28.7678 21.176 29.4718 21.328 30.3038 21.328C30.8638 21.328 31.3758 21.248 31.8398 21.088C32.3198 20.912 32.7038 20.664 32.9918 20.344C33.2798 20.024 33.4238 19.656 33.4238 19.24V19.144H29.6798V15.784H38.4878V25H35.7518L35.2238 23.368C34.7278 23.784 34.1838 24.136 33.5918 24.424C32.9998 24.712 32.3518 24.928 31.6478 25.072C30.9438 25.216 30.1678 25.288 29.3198 25.288Z" fill="white"/>
</svg>
