<svg width="35" height="18" viewBox="0 0 35 18" fill="none" xmlns="http://www.w3.org/2000/svg">
<path d="M7.392 17.288C5.968 17.288 4.744 17.08 3.72 16.664C2.696 16.248 1.912 15.6 1.368 14.72C0.824 13.824 0.552 12.672 0.552 11.264V11.048H5.52V11.24C5.52 12.008 5.664 12.552 5.952 12.872C6.24 13.176 6.664 13.328 7.224 13.328C7.784 13.328 8.208 13.176 8.496 12.872C8.784 12.552 8.928 12.008 8.928 11.24V0.487999H14.232V11.264C14.232 12.672 13.96 13.824 13.416 14.72C12.872 15.6 12.088 16.248 11.064 16.664C10.04 17.08 8.816 17.288 7.392 17.288ZM25.3198 17.288C22.5678 17.288 20.5038 16.568 19.1278 15.128C17.7678 13.688 17.0878 11.56 17.0878 8.744C17.0878 6.856 17.4398 5.28 18.1438 4.016C18.8478 2.752 19.8718 1.8 21.2158 1.16C22.5598 0.519999 24.1838 0.199999 26.0878 0.199999C27.2398 0.199999 28.3198 0.335999 29.3278 0.607999C30.3518 0.863999 31.2478 1.256 32.0158 1.784C32.7998 2.296 33.4078 2.944 33.8398 3.728C34.2718 4.512 34.4878 5.424 34.4878 6.464H29.4238C29.4238 6.112 29.3358 5.792 29.1598 5.504C28.9998 5.216 28.7758 4.976 28.4878 4.784C28.1998 4.576 27.8638 4.424 27.4798 4.328C27.1118 4.216 26.7198 4.16 26.3038 4.16C25.6798 4.16 25.1278 4.248 24.6478 4.424C24.1678 4.584 23.7678 4.832 23.4478 5.168C23.1438 5.504 22.9118 5.904 22.7518 6.368C22.5918 6.832 22.5118 7.368 22.5118 7.976V9.512C22.5118 10.312 22.6478 11 22.9198 11.576C23.2078 12.136 23.6318 12.568 24.1918 12.872C24.7678 13.176 25.4718 13.328 26.3038 13.328C26.8638 13.328 27.3758 13.248 27.8398 13.088C28.3198 12.912 28.7038 12.664 28.9918 12.344C29.2798 12.024 29.4238 11.656 29.4238 11.24V11.144H25.6798V7.784H34.4878V17H31.7518L31.2238 15.368C30.7278 15.784 30.1838 16.136 29.5918 16.424C28.9998 16.712 28.3518 16.928 27.6478 17.072C26.9438 17.216 26.1678 17.288 25.3198 17.288Z" />
  <style>
        path { fill: rgb(136, 58, 234); }
        @media (prefers-color-scheme: light) {
            path { fill: #000; }
        }
    </style>
</svg>